<svg xmlns="http://www.w3.org/2000/svg" viewBox="-1660 2227.321 24 27.648"><defs><style>.a{fill:#1f2f39;}</style></defs><g transform="translate(-1816.621 1992.845)"><path class="a" d="M6.736,27.648c-1.843-3.834-.864-6.035.554-8.1A12.88,12.88,0,0,0,9.24,15.039,5.282,5.282,0,0,1,9.969,19.1,10.261,10.261,0,0,0,12.2,11.421c4.867,3.4,6.946,10.766,4.145,16.227C31.259,19.211,20.061,6.581,18.11,5.164c.648,1.424.776,3.827-.54,5C15.349,1.728,9.854,0,9.854,0,10.5,4.347,7.5,9.106,4.6,12.656a9.4,9.4,0,0,0-1.121-4.59c-.2,3.152-2.612,5.717-3.267,8.876-.884,4.273.662,7.4,6.527,10.706Zm0,0" transform="translate(156.644 234.476)"/></g></svg>